<svg xmlns="http://www.w3.org/2000/svg" width="333" height="528" viewBox="0 0 333 528">
  <path id="Soustraction_35" data-name="Soustraction 35" d="M7156,8203h0a339.233,339.233,0,0,1-34.047-1.716c-11.07-1.122-22.194-2.815-33.063-5.034-10.727-2.189-21.464-4.943-31.914-8.185-10.337-3.208-20.63-6.966-30.595-11.171-9.876-4.167-19.669-8.874-29.108-13.988-9.371-5.078-18.608-10.676-27.456-16.639-8.811-5.938-17.436-12.373-25.635-19.124s-16.141-13.951-23.648-21.44-14.738-15.427-21.492-23.591c-6.77-8.183-13.219-16.787-19.17-25.573-5.978-8.827-11.589-18.042-16.68-27.39-5.126-9.412-9.844-19.182-14.022-29.039-4.217-9.946-7.984-20.215-11.2-30.521-3.249-10.423-6.01-21.134-8.205-31.836a332.257,332.257,0,0,1-5.047-32.983,336.76,336.76,0,0,1-1.719-33.965A330.436,330.436,0,0,1,6886.968,7675H7156v528Z" transform="translate(-6823 -7675)" fill="#a54b29"/>
</svg>
