<svg xmlns="http://www.w3.org/2000/svg" width="168.863" height="366.166" viewBox="0 0 168.863 366.166">
  <g id="Groupe_63" data-name="Groupe 63" transform="translate(-1083.345 -16.793)">
    <line id="Ligne_1" data-name="Ligne 1" y1="19.471" x2="19.471" transform="translate(1084.052 17.5)" fill="none" stroke="#4e686d" stroke-width="2"/>
    <line id="Ligne_1-2" data-name="Ligne 1" y1="19.471" x2="19.471" transform="translate(1133.377 17.5)" fill="none" stroke="#4e686d" stroke-width="2"/>
    <line id="Ligne_1-3" data-name="Ligne 1" y1="19.471" x2="19.471" transform="translate(1182.704 17.5)" fill="none" stroke="#4e686d" stroke-width="2"/>
    <line id="Ligne_1-4" data-name="Ligne 1" y1="19.471" x2="19.471" transform="translate(1232.029 17.5)" fill="none" stroke="#4e686d" stroke-width="2"/>
    <line id="Ligne_1-5" data-name="Ligne 1" y1="19.471" x2="19.471" transform="translate(1084.052 66.826)" fill="none" stroke="#4e686d" stroke-width="2"/>
    <line id="Ligne_1-6" data-name="Ligne 1" y1="19.471" x2="19.471" transform="translate(1133.377 66.826)" fill="none" stroke="#4e686d" stroke-width="2"/>
    <line id="Ligne_1-7" data-name="Ligne 1" y1="19.471" x2="19.471" transform="translate(1182.704 66.826)" fill="none" stroke="#4e686d" stroke-width="2"/>
    <line id="Ligne_1-8" data-name="Ligne 1" y1="19.471" x2="19.471" transform="translate(1232.029 66.826)" fill="none" stroke="#4e686d" stroke-width="2"/>
    <line id="Ligne_1-9" data-name="Ligne 1" y1="19.471" x2="19.471" transform="translate(1084.052 116.152)" fill="none" stroke="#4e686d" stroke-width="2"/>
    <line id="Ligne_1-10" data-name="Ligne 1" y1="19.471" x2="19.471" transform="translate(1133.377 116.152)" fill="none" stroke="#4e686d" stroke-width="2"/>
    <line id="Ligne_1-11" data-name="Ligne 1" y1="19.471" x2="19.471" transform="translate(1182.704 116.152)" fill="none" stroke="#4e686d" stroke-width="2"/>
    <line id="Ligne_1-12" data-name="Ligne 1" y1="19.471" x2="19.471" transform="translate(1232.029 116.152)" fill="none" stroke="#4e686d" stroke-width="2"/>
    <line id="Ligne_1-13" data-name="Ligne 1" y1="19.471" x2="19.471" transform="translate(1084.052 165.478)" fill="none" stroke="#4e686d" stroke-width="2"/>
    <line id="Ligne_1-14" data-name="Ligne 1" y1="19.471" x2="19.471" transform="translate(1133.377 165.478)" fill="none" stroke="#4e686d" stroke-width="2"/>
    <line id="Ligne_1-15" data-name="Ligne 1" y1="19.471" x2="19.471" transform="translate(1182.704 165.478)" fill="none" stroke="#4e686d" stroke-width="2"/>
    <line id="Ligne_1-16" data-name="Ligne 1" y1="19.471" x2="19.471" transform="translate(1232.029 165.478)" fill="none" stroke="#4e686d" stroke-width="2"/>
    <line id="Ligne_1-17" data-name="Ligne 1" y1="19.471" x2="19.471" transform="translate(1084.052 214.803)" fill="none" stroke="#4e686d" stroke-width="2"/>
    <line id="Ligne_1-18" data-name="Ligne 1" y1="19.471" x2="19.471" transform="translate(1133.377 214.803)" fill="none" stroke="#4e686d" stroke-width="2"/>
    <line id="Ligne_1-19" data-name="Ligne 1" y1="19.471" x2="19.471" transform="translate(1182.704 214.803)" fill="none" stroke="#4e686d" stroke-width="2"/>
    <line id="Ligne_1-20" data-name="Ligne 1" y1="19.471" x2="19.471" transform="translate(1232.029 214.803)" fill="none" stroke="#4e686d" stroke-width="2"/>
    <line id="Ligne_1-21" data-name="Ligne 1" y1="19.471" x2="19.471" transform="translate(1084.052 264.129)" fill="none" stroke="#4e686d" stroke-width="2"/>
    <line id="Ligne_1-22" data-name="Ligne 1" y1="19.471" x2="19.471" transform="translate(1133.377 264.129)" fill="none" stroke="#4e686d" stroke-width="2"/>
    <line id="Ligne_1-23" data-name="Ligne 1" y1="19.471" x2="19.471" transform="translate(1182.704 264.129)" fill="none" stroke="#4e686d" stroke-width="2"/>
    <line id="Ligne_1-24" data-name="Ligne 1" y1="19.471" x2="19.471" transform="translate(1232.029 264.129)" fill="none" stroke="#4e686d" stroke-width="2"/>
    <line id="Ligne_1-25" data-name="Ligne 1" y1="19.471" x2="19.471" transform="translate(1084.052 313.455)" fill="none" stroke="#4e686d" stroke-width="2"/>
    <line id="Ligne_1-26" data-name="Ligne 1" y1="19.471" x2="19.471" transform="translate(1133.377 313.455)" fill="none" stroke="#4e686d" stroke-width="2"/>
    <line id="Ligne_1-27" data-name="Ligne 1" y1="19.471" x2="19.471" transform="translate(1182.704 313.455)" fill="none" stroke="#4e686d" stroke-width="2"/>
    <line id="Ligne_1-28" data-name="Ligne 1" y1="19.471" x2="19.471" transform="translate(1232.029 313.455)" fill="none" stroke="#4e686d" stroke-width="2"/>
    <line id="Ligne_1-29" data-name="Ligne 1" y1="19.471" x2="19.471" transform="translate(1084.052 362.781)" fill="none" stroke="#4e686d" stroke-width="2"/>
    <line id="Ligne_1-30" data-name="Ligne 1" y1="19.471" x2="19.471" transform="translate(1133.377 362.781)" fill="none" stroke="#4e686d" stroke-width="2"/>
    <line id="Ligne_1-31" data-name="Ligne 1" y1="19.471" x2="19.471" transform="translate(1182.704 362.781)" fill="none" stroke="#4e686d" stroke-width="2"/>
    <line id="Ligne_1-32" data-name="Ligne 1" y1="19.471" x2="19.471" transform="translate(1232.029 362.781)" fill="none" stroke="#4e686d" stroke-width="2"/>
  </g>
</svg>
