<svg xmlns="http://www.w3.org/2000/svg" width="253.411" height="246" viewBox="0 0 253.411 246">
  <path id="Soustraction_21" data-name="Soustraction 21" d="M7373.938,1292H7291a351.162,351.162,0,0,1,1.786-35.356,346.118,346.118,0,0,1,5.24-34.335c2.28-11.141,5.146-22.291,8.521-33.14,3.336-10.725,7.248-21.415,11.628-31.771,4.34-10.261,9.24-20.431,14.563-30.228,5.287-9.732,11.115-19.324,17.321-28.511,6.178-9.144,12.875-18.1,19.905-26.621,7.009-8.492,14.518-16.754,22.319-24.557.482-.482.984-.98,1.488-1.479h150.64c-101.825,38.46-170.333,137.318-170.473,246Z" transform="translate(-7291 -1046)" fill="#792226"/>
</svg>
