<svg xmlns="http://www.w3.org/2000/svg" width="94.1" height="94.101" viewBox="0 0 94.1 94.101">
  <g id="Groupe_60" data-name="Groupe 60" transform="translate(-41.47 -4318.241)">
    <line id="Ligne_26" data-name="Ligne 26" y1="10.819" x2="10.819" transform="translate(42 4318.771)" fill="none" stroke="#4e686d" stroke-width="1.5"/>
    <line id="Ligne_27" data-name="Ligne 27" y1="10.819" x2="10.819" transform="translate(69.407 4318.771)" fill="none" stroke="#4e686d" stroke-width="1.5"/>
    <line id="Ligne_28" data-name="Ligne 28" y1="10.819" x2="10.819" transform="translate(96.814 4318.771)" fill="none" stroke="#4e686d" stroke-width="1.5"/>
    <line id="Ligne_29" data-name="Ligne 29" y1="10.819" x2="10.819" transform="translate(124.221 4318.771)" fill="none" stroke="#4e686d" stroke-width="1.5"/>
    <line id="Ligne_30" data-name="Ligne 30" y1="10.819" x2="10.819" transform="translate(42 4346.178)" fill="none" stroke="#4e686d" stroke-width="1.5"/>
    <line id="Ligne_31" data-name="Ligne 31" y1="10.819" x2="10.819" transform="translate(69.407 4346.178)" fill="none" stroke="#4e686d" stroke-width="1.5"/>
    <line id="Ligne_32" data-name="Ligne 32" y1="10.819" x2="10.819" transform="translate(96.814 4346.178)" fill="none" stroke="#4e686d" stroke-width="1.5"/>
    <line id="Ligne_33" data-name="Ligne 33" y1="10.819" x2="10.819" transform="translate(124.221 4346.178)" fill="none" stroke="#4e686d" stroke-width="1.5"/>
    <line id="Ligne_34" data-name="Ligne 34" y1="10.819" x2="10.819" transform="translate(42 4373.585)" fill="none" stroke="#4e686d" stroke-width="1.5"/>
    <line id="Ligne_35" data-name="Ligne 35" y1="10.819" x2="10.819" transform="translate(69.407 4373.585)" fill="none" stroke="#4e686d" stroke-width="1.5"/>
    <line id="Ligne_36" data-name="Ligne 36" y1="10.819" x2="10.819" transform="translate(96.814 4373.585)" fill="none" stroke="#4e686d" stroke-width="1.5"/>
    <line id="Ligne_37" data-name="Ligne 37" y1="10.819" x2="10.819" transform="translate(124.221 4373.585)" fill="none" stroke="#4e686d" stroke-width="1.5"/>
    <line id="Ligne_38" data-name="Ligne 38" y1="10.819" x2="10.819" transform="translate(42 4400.992)" fill="none" stroke="#4e686d" stroke-width="1.5"/>
    <line id="Ligne_39" data-name="Ligne 39" y1="10.819" x2="10.819" transform="translate(69.407 4400.992)" fill="none" stroke="#4e686d" stroke-width="1.5"/>
    <line id="Ligne_40" data-name="Ligne 40" y1="10.819" x2="10.819" transform="translate(96.814 4400.992)" fill="none" stroke="#4e686d" stroke-width="1.5"/>
    <line id="Ligne_41" data-name="Ligne 41" y1="10.819" x2="10.819" transform="translate(124.221 4400.992)" fill="none" stroke="#4e686d" stroke-width="1.5"/>
  </g>
</svg>
