<svg xmlns="http://www.w3.org/2000/svg" width="162" height="34" viewBox="0 0 162 34">
  <g id="Groupe_70" data-name="Groupe 70" transform="translate(-26 -848)">
    <rect id="Rectangle_154" data-name="Rectangle 154" width="162" height="34" rx="17" transform="translate(26 848)" fill="#fff"/>
    <g id="Groupe_67" data-name="Groupe 67">
      <circle id="Ellipse_34" data-name="Ellipse 34" cx="13.5" cy="13.5" r="13.5" transform="translate(30 852)" fill="#cfa7a8"/>
      <path id="book-solid" d="M15.624,12.555V.837A.835.835,0,0,0,14.787,0H3.348A3.349,3.349,0,0,0,0,3.348v11.16a3.349,3.349,0,0,0,3.348,3.348H14.787a.835.835,0,0,0,.837-.837v-.558a.843.843,0,0,0-.31-.652,7.777,7.777,0,0,1,0-2.605.831.831,0,0,0,.31-.649ZM4.464,4.673a.21.21,0,0,1,.209-.209h7.393a.21.21,0,0,1,.209.209v.7a.21.21,0,0,1-.209.209H4.673a.21.21,0,0,1-.209-.209Zm0,2.232A.21.21,0,0,1,4.673,6.7h7.393a.21.21,0,0,1,.209.209v.7a.21.21,0,0,1-.209.209H4.673A.21.21,0,0,1,4.464,7.6ZM13.3,15.624H3.348a1.116,1.116,0,0,1,0-2.232H13.3A12.555,12.555,0,0,0,13.3,15.624Z" transform="translate(35.688 856.572)" fill="#fff"/>
    </g>
    <line id="Ligne_25" data-name="Ligne 25" x2="10.416" transform="translate(64.799 865.26)" fill="none" stroke="#000" stroke-width="1"/>
    <text id="DUT_MMI" data-name="DUT MMI" transform="translate(83 854)" fill="#333" font-size="13" font-family="Mukta-Regular, Mukta"><tspan x="0" y="15">DUT MMI</tspan></text>
  </g>
</svg>
