<svg xmlns="http://www.w3.org/2000/svg" width="43.756" height="35" viewBox="0 0 43.756 35">
  <g id="Groupe_5" data-name="Groupe 5" transform="translate(-1476.175 -1384.995)">
    <path id="Soustraction_10" data-name="Soustraction 10" d="M4.993,35a.836.836,0,0,1-.234-.034L.591,33.755a.8.8,0,0,1-.489-.39.834.834,0,0,1-.071-.629L9.359.593A.818.818,0,0,1,10.148,0a.861.861,0,0,1,.229.032l4.168,1.21a.824.824,0,0,1,.56,1.019L5.779,34.406A.819.819,0,0,1,4.993,35Z" transform="translate(1490.484 1384.995)" fill="#4e686d"/>
    <path id="Soustraction_12" data-name="Soustraction 12" d="M10.677,20.118a.826.826,0,0,1-.568-.227L.262,10.653a.814.814,0,0,1,0-1.2L10.109.224A.82.82,0,0,1,11.27.259l2.973,3.173a.8.8,0,0,1,.224.592.819.819,0,0,1-.278.584L8,10.058l6.192,5.45a.822.822,0,0,1,.054,1.176L11.27,19.857A.8.8,0,0,1,10.677,20.118Z" transform="translate(1476.175 1392.438)" fill="#b57243"/>
    <path id="Soustraction_11" data-name="Soustraction 11" d="M3.8,20.123a.8.8,0,0,1-.6-.262L.226,16.689A.8.8,0,0,1,0,16.1a.82.82,0,0,1,.279-.583l6.192-5.449L.28,4.606A.819.819,0,0,1,.226,3.43L3.2.256A.822.822,0,0,1,3.8,0a.812.812,0,0,1,.562.222l9.847,9.245a.815.815,0,0,1,0,1.2L4.359,19.9A.83.83,0,0,1,3.8,20.123Z" transform="translate(1505.463 1392.433)" fill="#b57243"/>
  </g>
</svg>
