<svg xmlns="http://www.w3.org/2000/svg" width="39.999" height="35" viewBox="0 0 39.999 35">
  <g id="Groupe_27" data-name="Groupe 27" transform="translate(-1538.205 -2867.766)">
    <path id="Soustraction_19" data-name="Soustraction 19" d="M5.625,10h-5A.625.625,0,0,1,0,9.375V8.125A.625.625,0,0,1,.625,7.5h1.25v-5H1.25a.625.625,0,0,1-.558-.9L1.317.345A.62.62,0,0,1,1.875,0H3.75a.625.625,0,0,1,.624.625V7.5h1.25a.625.625,0,0,1,.625.625v1.25A.625.625,0,0,1,5.625,10Zm32.5-2.5h-25a1.251,1.251,0,0,1-1.249-1.25V3.75A1.251,1.251,0,0,1,13.124,2.5h25a1.251,1.251,0,0,1,1.25,1.25v2.5A1.251,1.251,0,0,1,38.124,7.5Z" transform="translate(1538.829 2867.766)" fill="#792226"/>
    <path id="Soustraction_17" data-name="Soustraction 17" d="M6.249,10H.944A.853.853,0,0,1,0,9.108V8.8A4.164,4.164,0,0,1,1.01,6,8.5,8.5,0,0,1,2.9,4.447c.6-.4,1.078-.712,1.077-1.051a.664.664,0,0,0-.725-.684h0a1.045,1.045,0,0,0-.735.3,1.139,1.139,0,0,1-.76.388.788.788,0,0,1-.5-.2l-.67-.538a.964.964,0,0,1-.415-.617.787.787,0,0,1,.2-.583A3.778,3.778,0,0,1,3.53,0,4.021,4.021,0,0,1,5.838.694,2.823,2.823,0,0,1,7,3.091,3.2,3.2,0,0,1,6.051,5.4a8,8,0,0,1-1.8,1.294c-.529.307-.946.55-1.028.807H6.249a.625.625,0,0,1,.625.624v1.25A.626.626,0,0,1,6.249,10Zm32.5-2.5h-25A1.251,1.251,0,0,1,12.5,6.25V3.75A1.251,1.251,0,0,1,13.75,2.5h25A1.251,1.251,0,0,1,40,3.75v2.5A1.251,1.251,0,0,1,38.75,7.5Z" transform="translate(1538.205 2880.266)" fill="#b57243"/>
    <path id="Soustraction_18" data-name="Soustraction 18" d="M3.28,10A5.553,5.553,0,0,1,.389,9.262.841.841,0,0,1,.184,8.017L.621,7.29a.734.734,0,0,1,.637-.438,1.155,1.155,0,0,1,.581.195,3.23,3.23,0,0,0,1.208.243c.724,0,1.123-.228,1.123-.643,0-.491-.384-.71-1.246-.71H2.556A.954.954,0,0,1,1.6,5.322l-.082-.151a1.033,1.033,0,0,1,.219-1.163l.438-.547a12.336,12.336,0,0,1,.86-.962H1.249a.626.626,0,0,1-.625-.624V.624A.626.626,0,0,1,1.249,0H5.7a.792.792,0,0,1,.886.886v.259a1.552,1.552,0,0,1-.4,1.109L4.825,3.828A2.822,2.822,0,0,1,7.069,6.553,3.429,3.429,0,0,1,3.28,10ZM38.749,7.5h-25A1.251,1.251,0,0,1,12.5,6.25v-2.5a1.251,1.251,0,0,1,1.25-1.25h25A1.251,1.251,0,0,1,40,3.749v2.5A1.251,1.251,0,0,1,38.749,7.5Z" transform="translate(1538.205 2892.766)" fill="#4e686d"/>
  </g>
</svg>
