<svg xmlns="http://www.w3.org/2000/svg" width="45" height="35" viewBox="0 0 45 35">
  <g id="Groupe_11" data-name="Groupe 11" transform="translate(-722.456 -2867.766)">
    <path id="Soustraction_14" data-name="Soustraction 14" d="M16.25,25a19.933,19.933,0,0,1-8.7-1.954A13.654,13.654,0,0,1,.625,25a.613.613,0,0,1-.57-.375.621.621,0,0,1,.117-.68,17.825,17.825,0,0,0,2.8-4.258A10.586,10.586,0,0,1,0,12.5,10.012,10.012,0,0,1,1.277,7.633,12.847,12.847,0,0,1,4.759,3.66,18.873,18.873,0,0,1,16.25,0,18.875,18.875,0,0,1,27.741,3.66a12.851,12.851,0,0,1,3.482,3.973,9.917,9.917,0,0,1,0,9.734,12.853,12.853,0,0,1-3.482,3.973A18.873,18.873,0,0,1,16.25,25Z" transform="translate(722.456 2867.766)" fill="#b57243"/>
    <path id="Soustraction_13" data-name="Soustraction 13" d="M30.6,24.07a13.644,13.644,0,0,1-6.929-1.953,19.829,19.829,0,0,1-8.7,1.953,19.748,19.748,0,0,1-9.091-2.14A13.885,13.885,0,0,1,0,16.422a23.277,23.277,0,0,0,2.477.149c10.339,0,18.749-6.729,18.749-15a11.463,11.463,0,0,0-.1-1.57A16.162,16.162,0,0,1,28.4,4.525a10.539,10.539,0,0,1,2.83,7.045,10.554,10.554,0,0,1-2.969,7.187,17.58,17.58,0,0,0,2.8,4.258.626.626,0,0,1,.116.68A.61.61,0,0,1,30.6,24.07Z" transform="translate(736.23 2878.695)" fill="#4e686d"/>
  </g>
</svg>
