<svg xmlns="http://www.w3.org/2000/svg" width="24.062" height="35" viewBox="0 0 24.062 35">
  <g id="Groupe_22" data-name="Groupe 22" transform="translate(-385.577 -1386.001)">
    <path id="Soustraction_6" data-name="Soustraction 6" d="M17.507,26.382H6.554c0-.005,0-.01,0-.015v-.008c0-.009,0-.017,0-.026v-.005a19.82,19.82,0,0,0-3.569-6.283,12.18,12.18,0,0,1,.4-16.389A11.854,11.854,0,0,1,11.993,0h.039a11.919,11.919,0,0,1,8.507,3.541,12.124,12.124,0,0,1,.546,16.5,19.814,19.814,0,0,0-3.568,6.283v0l0,.019c0,.01,0,.02,0,.031ZM12.031,4.4a7.685,7.685,0,0,0-7.657,7.7,1.094,1.094,0,1,0,2.188,0,5.489,5.489,0,0,1,5.469-5.5,1.1,1.1,0,0,0,0-2.2Z" transform="translate(385.577 1386.001)" fill="#b89558"/>
    <path id="Soustraction_5" data-name="Soustraction 5" d="M7.463,6.464H3.308A2.151,2.151,0,0,1,1.515,5.5L.364,3.773A2.141,2.141,0,0,1,0,2.582L0,0H10.771l0,2.582a2.15,2.15,0,0,1-.362,1.191L9.257,5.5A2.152,2.152,0,0,1,7.463,6.464Z" transform="translate(392.222 1414.536)" fill="#4e686d"/>
  </g>
</svg>
