<svg xmlns="http://www.w3.org/2000/svg" width="35.002" height="35" viewBox="0 0 35.002 35">
  <g id="Groupe_26" data-name="Groupe 26" transform="translate(-1139.331 -2867.767)">
    <path id="Soustraction_16" data-name="Soustraction 16" d="M7.807,12.588h0L.2,1.721A1.076,1.076,0,0,1,.126.589,1.077,1.077,0,0,1,1.1,0h7.6a2.2,2.2,0,0,1,1.876,1.062L15.3,8.938a14.114,14.114,0,0,0-7.49,3.649Zm19.388,0h0a14.121,14.121,0,0,0-7.49-3.648l4.726-7.876A2.2,2.2,0,0,1,26.307,0h7.6a1.077,1.077,0,0,1,.971.589A1.077,1.077,0,0,1,34.8,1.721L27.2,12.586Z" transform="translate(1139.332 2867.767)" fill="#792226"/>
    <path id="Soustraction_15" data-name="Soustraction 15" d="M12.03,24.063A12.031,12.031,0,0,1,3.524,3.524,12.031,12.031,0,1,1,20.538,20.539,11.952,11.952,0,0,1,12.03,24.063Zm0-18.859a.767.767,0,0,0-.7.438l-1.6,3.248-3.584.523a.785.785,0,0,0-.434,1.338L8.3,13.277l-.613,3.57a.768.768,0,0,0,.171.635.8.8,0,0,0,.6.284.771.771,0,0,0,.365-.092l3.206-1.685,3.208,1.685a.773.773,0,0,0,.364.092.8.8,0,0,0,.6-.284.767.767,0,0,0,.171-.634l-.614-3.57,2.593-2.527a.785.785,0,0,0-.435-1.338l-3.583-.523-1.6-3.248A.785.785,0,0,0,12.029,5.2Z" transform="translate(1144.801 2878.703)" fill="#b89558"/>
  </g>
</svg>
