<svg xmlns="http://www.w3.org/2000/svg" width="14.574" height="14.574" viewBox="0 0 14.574 14.574">
  <path id="dribbble-brands" d="M15.287,8a7.287,7.287,0,1,0,7.287,7.287A7.3,7.3,0,0,0,15.287,8Zm4.818,3.36a6.2,6.2,0,0,1,1.405,3.877,14.546,14.546,0,0,0-4.334-.2c-.169-.413-.329-.776-.547-1.223a8.291,8.291,0,0,0,3.476-2.454Zm-.692-.72a7.028,7.028,0,0,1-3.262,2.248,33.225,33.225,0,0,0-2.322-3.644,6.208,6.208,0,0,1,5.585,1.4Zm-6.772-.977a39.715,39.715,0,0,1,2.308,3.6,23.217,23.217,0,0,1-5.754.758,6.247,6.247,0,0,1,3.447-4.358ZM9.063,15.3c0-.064,0-.127,0-.19a22.96,22.96,0,0,0,6.4-.886c.178.349.348.7.5,1.056a9.641,9.641,0,0,0-5.3,4.181,6.2,6.2,0,0,1-1.6-4.162Zm2.4,4.91a8.754,8.754,0,0,1,4.924-3.9,25.873,25.873,0,0,1,1.328,4.72,6.212,6.212,0,0,1-6.252-.819Zm7.3.249a26.862,26.862,0,0,0-1.209-4.438,9.136,9.136,0,0,1,3.877.266,6.235,6.235,0,0,1-2.668,4.172Z" transform="translate(-8 -8)"/>
</svg>
