<svg xmlns="http://www.w3.org/2000/svg" width="14.511" height="10.884" viewBox="0 0 14.511 10.884">
  <path id="envelope-solid" d="M14.237,67.594a.171.171,0,0,1,.275.133v5.8a1.361,1.361,0,0,1-1.36,1.36H1.36A1.361,1.361,0,0,1,0,73.523V67.73A.17.17,0,0,1,.275,67.6c.635.493,1.477,1.12,4.368,3.22.6.436,1.607,1.355,2.613,1.349s2.041-.93,2.616-1.349C12.763,68.716,13.6,68.087,14.237,67.594ZM7.256,71.256c.658.011,1.6-.828,2.08-1.173,3.761-2.729,4.047-2.967,4.915-3.648a.678.678,0,0,0,.261-.536V65.36A1.361,1.361,0,0,0,13.151,64H1.36A1.361,1.361,0,0,0,0,65.36V65.9a.682.682,0,0,0,.261.536c.867.677,1.154.918,4.915,3.648C5.652,70.428,6.6,71.267,7.256,71.256Z" transform="translate(0 -64)"/>
</svg>
