<svg xmlns="http://www.w3.org/2000/svg" width="23.105" height="14.485" viewBox="0 0 23.105 14.485">
  <path id="behance-brands" d="M9.306,81.89a3.044,3.044,0,0,0,1.941-2.968c0-2.832-2.11-3.522-4.545-3.522H0V89.616H6.891c2.583,0,5.01-1.239,5.01-4.128a3.425,3.425,0,0,0-2.6-3.6ZM3.125,77.827H6.057c1.127,0,2.142.317,2.142,1.625,0,1.207-.79,1.693-1.905,1.693H3.125V77.827ZM6.466,87.2H3.125V83.286H6.53c1.376,0,2.246.574,2.246,2.03C8.777,86.752,7.738,87.2,6.466,87.2Zm14.38-9.655H15.082v-1.4h5.764ZM23.1,84.618c0-3.045-1.781-5.584-5.01-5.584a5.173,5.173,0,0,0-5.267,5.447c0,3.2,2.018,5.4,5.267,5.4a4.589,4.589,0,0,0,4.818-3.462h-2.5a2.342,2.342,0,0,1-2.234,1.344,2.328,2.328,0,0,1-2.527-2.619h7.425C23.093,84.979,23.1,84.8,23.1,84.618ZM15.66,83.366a2.209,2.209,0,0,1,2.347-2.2,2.107,2.107,0,0,1,2.254,2.2Z" transform="translate(0 -75.4)"/>
</svg>
