<svg xmlns="http://www.w3.org/2000/svg" width="260.121" height="336.121" viewBox="0 0 260.121 336.121">
  <g id="Groupe_74" data-name="Groupe 74" transform="translate(-53.509 -1459.067)">
    <line id="Ligne_1" data-name="Ligne 1" y1="30" x2="30" transform="translate(54.57 1460.128)" fill="none" stroke="#792226" stroke-width="3"/>
    <line id="Ligne_1-2" data-name="Ligne 1" y1="30" x2="30" transform="translate(130.57 1460.128)" fill="none" stroke="#792226" stroke-width="3"/>
    <line id="Ligne_1-3" data-name="Ligne 1" y1="30" x2="30" transform="translate(206.57 1460.128)" fill="none" stroke="#792226" stroke-width="3"/>
    <line id="Ligne_1-4" data-name="Ligne 1" y1="30" x2="30" transform="translate(282.57 1460.128)" fill="none" stroke="#792226" stroke-width="3"/>
    <line id="Ligne_1-5" data-name="Ligne 1" y1="30" x2="30" transform="translate(54.57 1536.128)" fill="none" stroke="#792226" stroke-width="3"/>
    <line id="Ligne_1-6" data-name="Ligne 1" y1="30" x2="30" transform="translate(130.57 1536.128)" fill="none" stroke="#792226" stroke-width="3"/>
    <line id="Ligne_1-7" data-name="Ligne 1" y1="30" x2="30" transform="translate(206.57 1536.128)" fill="none" stroke="#792226" stroke-width="3"/>
    <line id="Ligne_1-8" data-name="Ligne 1" y1="30" x2="30" transform="translate(282.57 1536.128)" fill="none" stroke="#792226" stroke-width="3"/>
    <line id="Ligne_1-9" data-name="Ligne 1" y1="30" x2="30" transform="translate(54.57 1612.128)" fill="none" stroke="#792226" stroke-width="3"/>
    <line id="Ligne_1-10" data-name="Ligne 1" y1="30" x2="30" transform="translate(130.57 1612.128)" fill="none" stroke="#792226" stroke-width="3"/>
    <line id="Ligne_1-11" data-name="Ligne 1" y1="30" x2="30" transform="translate(206.57 1612.128)" fill="none" stroke="#792226" stroke-width="3"/>
    <line id="Ligne_1-12" data-name="Ligne 1" y1="30" x2="30" transform="translate(282.57 1612.128)" fill="none" stroke="#792226" stroke-width="3"/>
    <line id="Ligne_1-13" data-name="Ligne 1" y1="30" x2="30" transform="translate(54.57 1688.128)" fill="none" stroke="#792226" stroke-width="3"/>
    <line id="Ligne_1-14" data-name="Ligne 1" y1="30" x2="30" transform="translate(130.57 1688.128)" fill="none" stroke="#792226" stroke-width="3"/>
    <line id="Ligne_1-15" data-name="Ligne 1" y1="30" x2="30" transform="translate(206.57 1688.128)" fill="none" stroke="#792226" stroke-width="3"/>
    <line id="Ligne_1-16" data-name="Ligne 1" y1="30" x2="30" transform="translate(282.57 1688.128)" fill="none" stroke="#792226" stroke-width="3"/>
    <line id="Ligne_1-17" data-name="Ligne 1" y1="30" x2="30" transform="translate(54.57 1764.128)" fill="none" stroke="#792226" stroke-width="3"/>
    <line id="Ligne_1-18" data-name="Ligne 1" y1="30" x2="30" transform="translate(130.57 1764.128)" fill="none" stroke="#792226" stroke-width="3"/>
    <line id="Ligne_1-19" data-name="Ligne 1" y1="30" x2="30" transform="translate(206.57 1764.128)" fill="none" stroke="#792226" stroke-width="3"/>
    <line id="Ligne_1-20" data-name="Ligne 1" y1="30" x2="30" transform="translate(282.57 1764.128)" fill="none" stroke="#792226" stroke-width="3"/>
  </g>
</svg>
