<svg xmlns="http://www.w3.org/2000/svg" width="260.121" height="336.121" viewBox="0 0 260.121 336.121">
  <g id="Groupe_73" data-name="Groupe 73" transform="translate(-1598.158 -673.991)">
    <line id="Ligne_1" data-name="Ligne 1" y1="30" x2="30" transform="translate(1599.219 675.052)" fill="none" stroke="#4e686d" stroke-width="3"/>
    <line id="Ligne_1-2" data-name="Ligne 1" y1="30" x2="30" transform="translate(1675.219 675.052)" fill="none" stroke="#4e686d" stroke-width="3"/>
    <line id="Ligne_1-3" data-name="Ligne 1" y1="30" x2="30" transform="translate(1751.219 675.052)" fill="none" stroke="#4e686d" stroke-width="3"/>
    <line id="Ligne_1-4" data-name="Ligne 1" y1="30" x2="30" transform="translate(1827.219 675.052)" fill="none" stroke="#4e686d" stroke-width="3"/>
    <line id="Ligne_1-5" data-name="Ligne 1" y1="30" x2="30" transform="translate(1599.219 751.052)" fill="none" stroke="#4e686d" stroke-width="3"/>
    <line id="Ligne_1-6" data-name="Ligne 1" y1="30" x2="30" transform="translate(1675.219 751.052)" fill="none" stroke="#4e686d" stroke-width="3"/>
    <line id="Ligne_1-7" data-name="Ligne 1" y1="30" x2="30" transform="translate(1751.219 751.052)" fill="none" stroke="#4e686d" stroke-width="3"/>
    <line id="Ligne_1-8" data-name="Ligne 1" y1="30" x2="30" transform="translate(1827.219 751.052)" fill="none" stroke="#4e686d" stroke-width="3"/>
    <line id="Ligne_1-9" data-name="Ligne 1" y1="30" x2="30" transform="translate(1599.219 827.052)" fill="none" stroke="#4e686d" stroke-width="3"/>
    <line id="Ligne_1-10" data-name="Ligne 1" y1="30" x2="30" transform="translate(1675.219 827.052)" fill="none" stroke="#4e686d" stroke-width="3"/>
    <line id="Ligne_1-11" data-name="Ligne 1" y1="30" x2="30" transform="translate(1751.219 827.052)" fill="none" stroke="#4e686d" stroke-width="3"/>
    <line id="Ligne_1-12" data-name="Ligne 1" y1="30" x2="30" transform="translate(1827.219 827.052)" fill="none" stroke="#4e686d" stroke-width="3"/>
    <line id="Ligne_1-13" data-name="Ligne 1" y1="30" x2="30" transform="translate(1599.219 903.052)" fill="none" stroke="#4e686d" stroke-width="3"/>
    <line id="Ligne_1-14" data-name="Ligne 1" y1="30" x2="30" transform="translate(1675.219 903.052)" fill="none" stroke="#4e686d" stroke-width="3"/>
    <line id="Ligne_1-15" data-name="Ligne 1" y1="30" x2="30" transform="translate(1751.219 903.052)" fill="none" stroke="#4e686d" stroke-width="3"/>
    <line id="Ligne_1-16" data-name="Ligne 1" y1="30" x2="30" transform="translate(1827.219 903.052)" fill="none" stroke="#4e686d" stroke-width="3"/>
    <line id="Ligne_1-17" data-name="Ligne 1" y1="30" x2="30" transform="translate(1599.219 979.052)" fill="none" stroke="#4e686d" stroke-width="3"/>
    <line id="Ligne_1-18" data-name="Ligne 1" y1="30" x2="30" transform="translate(1675.219 979.052)" fill="none" stroke="#4e686d" stroke-width="3"/>
    <line id="Ligne_1-19" data-name="Ligne 1" y1="30" x2="30" transform="translate(1751.219 979.052)" fill="none" stroke="#4e686d" stroke-width="3"/>
    <line id="Ligne_1-20" data-name="Ligne 1" y1="30" x2="30" transform="translate(1827.219 979.052)" fill="none" stroke="#4e686d" stroke-width="3"/>
  </g>
</svg>
