<svg xmlns="http://www.w3.org/2000/svg" viewBox="0 0 1000 960"><defs><style>.cls-1{fill:#fff;}.cls-2{fill:#1d1d1b;}</style></defs><g id="Ver._3" data-name="Ver. 3"><rect class="cls-1" width="1000" height="960" rx="480"/><path class="cls-2" d="M530.12,237q0,70.05-53.38,70.06-26.69,0-43-19.65Q447.45,280,458,259.59T468.58,219q0-20.2-10.56-34.1T424.29,171q-23.18,0-43,15.57T344,228.82q-35.22,53.39-57.46,136.41T264.34,515.91q0,67.65,19.83,97.86t68,30.21q94.89,0,151.24-76l17.42,7.79q-36.33,91.94-138.26,127.51-40,14.09-78.59,14.09h-2.22q-84.15-.75-123.81-43.74T138.31,535.37q0-95.25,31.51-190.15,36.69-111.95,108.24-167.55,54.84-42.25,125.29-42.26,88.2,0,116.76,55.23Q530.12,209.92,530.12,237Z"/><path class="cls-2" d="M704.07,395.36,599.17,882.8h-109L597.68,380.16h-8.89q-67.1,0-101.57,31.14-41.14,37.07-41.14,122.32,0,30.78,8.52,46.34a10.16,10.16,0,0,1,1.86,5.19q-60.81,0-76-38.92-5.21-14.09-5.19-43.37T389.36,438q14.08-35.6,45.23-63,68.57-60.78,199.79-60.79,53.75,0,85.44,5.56t55,8.53q23.71,3.33,63.2,3.33t78.77-15.94q-3.71,96.39-94.9,96.38Q787.47,412,704.07,395.36Z"/></g></svg>